<svg xmlns="http://www.w3.org/2000/svg" viewBox="0 0 600 600"><defs><style>.cls-1{fill:#e12490;}.cls-2{fill:#cbdf82;}</style></defs><g id="Layer_2" data-name="Layer 2"><g id="Layer_1-2" data-name="Layer 1"><circle class="cls-1" cx="300" cy="300" r="300"/><path class="cls-2" d="M164.55,85.68l7.72-5.2a2,2,0,0,1,2.78.54l33.4,49.57a2,2,0,0,1-.55,2.77L199.54,139a2.09,2.09,0,0,1-2,.11l-35.46-18.69,19.2,28.49a2,2,0,0,1-.54,2.78l-7.72,5.2a2,2,0,0,1-2.78-.54l-33.4-49.56a2,2,0,0,1,.54-2.78l8.37-5.64a2,2,0,0,1,2-.1L183.21,117,164,88.46A2,2,0,0,1,164.55,85.68Z"/><path class="cls-2" d="M216.69,101.11l-9.73-35a2,2,0,0,1,1.39-2.47l9-2.49a2,2,0,0,1,2.38,1.42l9.78,35.21A11.89,11.89,0,0,0,244.16,106a11.61,11.61,0,0,0,7.94-14.31l-9.85-35.46a2,2,0,0,1,1.4-2.46l9-2.49A2,2,0,0,1,255,52.72l9.85,35.47A24.93,24.93,0,0,1,247,119.07,25.24,25.24,0,0,1,216.69,101.11Z"/><path class="cls-2" d="M330.55,102.13l-3.23,9.19a2,2,0,0,1-2,1.32l-35.72-1.36a2,2,0,0,1-1.93-2.08L290,49.48a2,2,0,0,1,2.08-1.92l35.72,1.36a2,2,0,0,1,1.86,1.47l2.52,9.41a1.94,1.94,0,0,1-2,2.45l-27.3-1-.46,12,16.52.63a2,2,0,0,1,1.92,2.08l-.36,9.3a2,2,0,0,1-2.07,1.92l-16.52-.63-.45,11.91,27.29,1A2,2,0,0,1,330.55,102.13Z"/><path class="cls-2" d="M409.79,73.76,372.4,124a2,2,0,0,1-2.26.68l-1.24-.44-7.38-2.59-1.23-.44a1.86,1.86,0,0,1-1.27-1.92l2.18-62.59a2,2,0,0,1,2.67-1.82l8.62,3a2,2,0,0,1,1.34,1.94l-1.58,43.07,25.8-34.55a1.94,1.94,0,0,1,2.18-.71l8.62,3A2,2,0,0,1,409.79,73.76Z"/><path class="cls-2" d="M429.74,158.91l-7.56-5.12a1.78,1.78,0,0,1-.73-2.18l2-6.72-17.78-12-5.49,4.37a2,2,0,0,1-2.37.08l-7.56-5.12a2,2,0,0,1-.12-3.23l49-39a1.87,1.87,0,0,1,2.29-.13l1.08.73L449,95l1.08.73a2.06,2.06,0,0,1,.8,2.22l-18.11,59.92A2,2,0,0,1,429.74,158.91Zm-2.26-27.38,6.34-21.14-17.28,13.73Z"/><path class="cls-2" d="M207,502.62l-10.68-5.08L186.64,518a2,2,0,0,1-2.67.95l-8.41-4a2,2,0,0,1-.94-2.67l25.64-53.88a2,2,0,0,1,2.67-.95l9.27,4.41,11.62,5.53A19.53,19.53,0,0,1,207,502.62Zm14.07-15a6.27,6.27,0,0,0-3-8.27l-10.68-5.08-5.34,11.23,10.68,5.08A6.28,6.28,0,0,0,221.11,487.64Z"/><path class="cls-2" d="M282,547.45l-9-1.5a1.79,1.79,0,0,1-1.58-1.67l-1-6.95-21.2-3.53-3.16,6.27a2,2,0,0,1-2.12,1.06l-9-1.5a2,2,0,0,1-1.46-2.88l28.25-55.9a1.88,1.88,0,0,1,2-1.08l1.28.21,7.73,1.29,1.29.21a2.07,2.07,0,0,1,1.66,1.69l8.57,62A2,2,0,0,1,282,547.45Zm-13.49-23.94-3.07-21.86-10,19.69Z"/><path class="cls-2" d="M358.36,523.05l4.48,9a1.94,1.94,0,0,1-.44,2.27A31.54,31.54,0,0,1,345.08,543,31.89,31.89,0,0,1,333,480.43,32.28,32.28,0,0,1,354.41,483a2.07,2.07,0,0,1,1.12,2.12L354,494.94a2,2,0,0,1-3.13,1.37,18.41,18.41,0,0,0-13.53-3.18A18.61,18.61,0,1,0,355,522.69,2,2,0,0,1,358.36,523.05Z"/><path class="cls-2" d="M431.84,510.85l-9.33,4.68a2,2,0,0,1-2.06-.24l-18.22-13.64-1,12.18,4,8.09a2,2,0,0,1-.9,2.68l-8.32,4.17a2,2,0,0,1-2.68-.89l-26.77-53.44a2,2,0,0,1,.9-2.69l8.32-4.17a2,2,0,0,1,2.68.9l11.81,23.57,2.43-31.87a2.1,2.1,0,0,1,1.13-1.63l9-4.52a2,2,0,0,1,2.92,1.94l-2.39,30,28.68,21.54A2,2,0,0,1,431.84,510.85Z"/><path class="cls-2" d="M175.06,327.88h43.31V279.19H175.06V229.86c26.73-1,42.48-6,43.72-19.27h26.53V327.88h41.24v64H175.06Z"/><path class="cls-2" d="M308.72,284.78V210.59h74.39c24,0,40,13.06,40,32.54v5.59c0,11.81-7.88,26.73-24.87,40.2l-48.91,39h8.5a11.86,11.86,0,0,0,11.81-9.94h51v74H308.72v-64l48.7-40.61a8.9,8.9,0,0,0,3.52-6.63c0-3.73-2.28-6-6-6h-7.46a11.85,11.85,0,0,0-11.81,10.15Z"/></g></g></svg>